<svg width="165" height="43" viewBox="0 0 165 43" fill="none" xmlns="http://www.w3.org/2000/svg">
<path d="M0.675 33L13.275 1.23H19.665L32.13 33H24.66L15.12 6.63H17.685L8.01 33H0.675ZM7.83 27.24V21.48H25.155V27.24H7.83ZM43.3846 42.81C40.9846 42.81 38.8696 42.39 37.0396 41.55C35.2396 40.74 33.8146 39.585 32.7646 38.085L36.9946 33.855C37.7746 34.785 38.6446 35.49 39.6046 35.97C40.5946 36.45 41.7796 36.69 43.1596 36.69C44.8696 36.69 46.2046 36.27 47.1646 35.43C48.1546 34.59 48.6496 33.405 48.6496 31.875V26.295L49.8196 21.525L48.7846 16.755V11.13H55.5346V31.695C55.5346 33.945 55.0096 35.895 53.9596 37.545C52.9096 39.195 51.4696 40.485 49.6396 41.415C47.8096 42.345 45.7246 42.81 43.3846 42.81ZM43.0696 32.325C41.0596 32.325 39.2746 31.845 37.7146 30.885C36.1546 29.925 34.9246 28.62 34.0246 26.97C33.1246 25.32 32.6746 23.49 32.6746 21.48C32.6746 19.44 33.1246 17.61 34.0246 15.99C34.9246 14.34 36.1546 13.05 37.7146 12.12C39.2746 11.16 41.0596 10.68 43.0696 10.68C44.5696 10.68 45.9046 10.965 47.0746 11.535C48.2746 12.075 49.2346 12.855 49.9546 13.875C50.7046 14.865 51.1246 16.02 51.2146 17.34V25.665C51.1246 26.955 50.7046 28.11 49.9546 29.13C49.2346 30.12 48.2746 30.9 47.0746 31.47C45.8746 32.04 44.5396 32.325 43.0696 32.325ZM44.3746 26.205C45.3346 26.205 46.1596 25.995 46.8496 25.575C47.5696 25.155 48.1096 24.6 48.4696 23.91C48.8596 23.19 49.0546 22.38 49.0546 21.48C49.0546 20.58 48.8596 19.77 48.4696 19.05C48.1096 18.33 47.5696 17.76 46.8496 17.34C46.1596 16.92 45.3346 16.71 44.3746 16.71C43.4446 16.71 42.6196 16.92 41.8996 17.34C41.1796 17.76 40.6246 18.33 40.2346 19.05C39.8446 19.77 39.6496 20.58 39.6496 21.48C39.6496 22.32 39.8446 23.115 40.2346 23.865C40.6246 24.585 41.1646 25.155 41.8546 25.575C42.5746 25.995 43.4146 26.205 44.3746 26.205ZM60.3939 33V11.13H67.2789V33H60.3939ZM67.2789 20.985L64.3989 18.735C64.9689 16.185 65.9289 14.205 67.2789 12.795C68.6289 11.385 70.5039 10.68 72.9039 10.68C73.9539 10.68 74.8689 10.845 75.6489 11.175C76.4589 11.475 77.1639 11.955 77.7639 12.615L73.6689 17.79C73.3689 17.46 72.9939 17.205 72.5439 17.025C72.0939 16.845 71.5839 16.755 71.0139 16.755C69.8739 16.755 68.9589 17.115 68.2689 17.835C67.6089 18.525 67.2789 19.575 67.2789 20.985ZM79.598 33V11.13H86.483V33H79.598ZM83.063 8.115C81.983 8.115 81.083 7.755 80.363 7.035C79.673 6.285 79.328 5.385 79.328 4.335C79.328 3.255 79.673 2.355 80.363 1.635C81.083 0.914999 81.983 0.554999 83.063 0.554999C84.143 0.554999 85.028 0.914999 85.718 1.635C86.408 2.355 86.753 3.255 86.753 4.335C86.753 5.385 86.408 6.285 85.718 7.035C85.028 7.755 84.143 8.115 83.063 8.115ZM101.501 33.495C98.8914 33.495 96.6414 33.075 94.7514 32.235C92.8914 31.365 91.1814 30.06 89.6214 28.32L94.2114 23.775C95.2314 24.945 96.3564 25.86 97.5864 26.52C98.8464 27.15 100.301 27.465 101.951 27.465C103.451 27.465 104.606 27.195 105.416 26.655C106.256 26.115 106.676 25.365 106.676 24.405C106.676 23.535 106.406 22.83 105.866 22.29C105.326 21.75 104.606 21.285 103.706 20.895C102.836 20.505 101.861 20.13 100.781 19.77C99.7314 19.41 98.6814 19.005 97.6314 18.555C96.5814 18.075 95.6064 17.49 94.7064 16.8C93.8364 16.08 93.1314 15.195 92.5914 14.145C92.0514 13.065 91.7814 11.715 91.7814 10.095C91.7814 8.145 92.2464 6.465 93.1764 5.055C94.1364 3.645 95.4564 2.58 97.1364 1.86C98.8164 1.11 100.751 0.735 102.941 0.735C105.161 0.735 107.186 1.125 109.016 1.905C110.876 2.685 112.406 3.75 113.606 5.1L109.016 9.645C108.056 8.655 107.081 7.92 106.091 7.44C105.131 6.96 104.036 6.72 102.806 6.72C101.576 6.72 100.601 6.96 99.8814 7.44C99.1614 7.89 98.8014 8.55 98.8014 9.42C98.8014 10.23 99.0714 10.89 99.6114 11.4C100.151 11.88 100.856 12.3 101.726 12.66C102.626 13.02 103.601 13.38 104.651 13.74C105.731 14.1 106.796 14.52 107.846 15C108.896 15.48 109.856 16.095 110.726 16.845C111.626 17.565 112.346 18.495 112.886 19.635C113.426 20.745 113.696 22.125 113.696 23.775C113.696 26.805 112.616 29.19 110.456 30.93C108.296 32.64 105.311 33.495 101.501 33.495ZM117.567 33V11.13H124.452V33H117.567ZM121.032 8.115C119.952 8.115 119.052 7.755 118.332 7.035C117.642 6.285 117.297 5.385 117.297 4.335C117.297 3.255 117.642 2.355 118.332 1.635C119.052 0.914999 119.952 0.554999 121.032 0.554999C122.112 0.554999 122.997 0.914999 123.687 1.635C124.377 2.355 124.722 3.255 124.722 4.335C124.722 5.385 124.377 6.285 123.687 7.035C122.997 7.755 122.112 8.115 121.032 8.115ZM129.3 33V11.13H136.185V33H129.3ZM143.295 33V20.22C143.295 19.11 142.95 18.255 142.26 17.655C141.6 17.025 140.775 16.71 139.785 16.71C139.095 16.71 138.48 16.86 137.94 17.16C137.4 17.43 136.965 17.82 136.635 18.33C136.335 18.84 136.185 19.47 136.185 20.22L133.53 19.05C133.53 17.31 133.905 15.825 134.655 14.595C135.405 13.335 136.425 12.375 137.715 11.715C139.005 11.025 140.46 10.68 142.08 10.68C143.61 10.68 144.975 11.025 146.175 11.715C147.405 12.405 148.38 13.365 149.1 14.595C149.82 15.825 150.18 17.295 150.18 19.005V33H143.295ZM157.29 33V20.22C157.29 19.11 156.945 18.255 156.255 17.655C155.595 17.025 154.77 16.71 153.78 16.71C153.09 16.71 152.475 16.86 151.935 17.16C151.395 17.43 150.96 17.82 150.63 18.33C150.33 18.84 150.18 19.47 150.18 20.22L146.22 19.68C146.28 17.82 146.715 16.23 147.525 14.91C148.365 13.56 149.46 12.525 150.81 11.805C152.19 11.055 153.735 10.68 155.445 10.68C157.125 10.68 158.61 11.04 159.9 11.76C161.22 12.45 162.255 13.455 163.005 14.775C163.785 16.065 164.175 17.625 164.175 19.455V33H157.29Z" fill="#0E7D20"/>
</svg>
